<svg width="32" height="33" viewBox="0 0 32 33" fill="none" xmlns="http://www.w3.org/2000/svg">
<g clip-path="url(#clip0_5847_4499)">
<circle cx="16" cy="16.5" r="16" fill="white"/>
<path d="M16 0.5C7.2 0.5 0 7.7 0 16.5C0 25.3 7.2 32.5 16 32.5C24.8 32.5 32 25.3 32 16.5C32 7.7 24.8 0.5 16 0.5ZM16 24.5C14.896 24.5 14 23.604 14 22.5C14 21.396 14.896 20.5 16 20.5C17.104 20.5 18 21.396 18 22.5C18 23.604 17.104 24.5 16 24.5ZM18 17.5C18 18.052 17.552 18.5 17 18.5H15C14.448 18.5 14 18.052 14 17.5V9.5C14 8.948 14.448 8.5 15 8.5H17C17.552 8.5 18 8.948 18 9.5V17.5Z" fill="#B87A00"/>
</g>
<defs>
<clipPath id="clip0_5847_4499">
<rect width="32" height="32" fill="white" transform="translate(0 0.5)"/>
</clipPath>
</defs>
</svg>
