<?xml version="1.0" encoding="utf-8"?>
<!-- Generator: Adobe Illustrator 16.0.4, SVG Export Plug-In . SVG Version: 6.00 Build 0)  -->
<!DOCTYPE svg PUBLIC "-//W3C//DTD SVG 1.1//EN" "http://www.w3.org/Graphics/SVG/1.1/DTD/svg11.dtd">
<svg version="1.1" id="Layer_1" xmlns="http://www.w3.org/2000/svg" xmlns:xlink="http://www.w3.org/1999/xlink" x="0px" y="0px"
	 width="339.384px" height="54px" viewBox="0 0 339.384 54" enable-background="new 0 0 339.384 54" xml:space="preserve">
<g>
	<rect x="52" y="8.007" fill="#FFFFFF" width="20" height="8"/>
</g>
<g>
	<rect x="13" y="8.007" fill="#FFFFFF" width="8" height="26"/>
</g>
<g>
	<rect x="26" y="8.007" fill="#FFFFFF" width="8" height="38"/>
</g>
<g>
	<rect y="8.007" fill="#FFFFFF" width="8" height="38"/>
</g>
<g>
	<rect x="52" y="21.007" fill="#FFFFFF" width="8" height="25"/>
</g>
<g>
	<rect x="39" y="8.007" fill="#FFFFFF" width="8" height="8"/>
</g>
<g>
	<rect x="39" y="21.007" fill="#8B8B8B" width="8" height="25"/>
</g>
<rect x="88" fill="#EEEEEE" width="1" height="54"/>
<g>
	<path fill="#FCFCFC" d="M117.336,35.367h-4.699l-3.365-10.674l0.145,13.314h-4.583V16.252h5.83l4.322,13.547l4.322-13.547h5.831
		v21.756h-4.583l0.145-13.314L117.336,35.367z"/>
	<path fill="#FCFCFC" d="M128.121,38.008V16.252h4.641v21.756H128.121z"/>
	<path fill="#FCFCFC" d="M144.74,20.487v17.521h-4.641V20.487h-5.25v-4.235h15.142v4.235H144.74z"/>
	<path fill="#FCFCFC" d="M155.789,33.569l-2.263,4.438h-5.134l4.322-7.455l-4.003-7.049h5.047l2.031,4.148l2.03-4.148h5.047
		l-4.003,7.049l4.322,7.455h-5.134L155.789,33.569z"/>
	<path fill="#FCFCFC" d="M183.108,35.367h-4.699l-3.365-10.674l0.145,13.314h-4.583V16.252h5.83l4.322,13.547l4.321-13.547h5.831
		v21.756h-4.583l0.145-13.314L183.108,35.367z"/>
	<path fill="#FCFCFC" d="M196.01,16.542c1.537,0,2.755,1.218,2.755,2.756c0,1.566-1.218,2.756-2.755,2.756
		c-1.566,0-2.756-1.189-2.756-2.756C193.254,17.76,194.444,16.542,196.01,16.542z M199.492,38.123c0,0-0.609,0.116-1.335,0.116
		c-2.495,0-4.468-1.276-4.468-4.09V23.504h4.613v10.008c0,0.551,0.261,0.869,1.189,0.869V38.123z"/>
	<path fill="#FCFCFC" d="M208.742,34.41c1.276,0,2.263-0.261,3.221-0.667v3.945c-0.958,0.464-2.09,0.726-3.685,0.726
		c-5.366,0-7.339-2.727-7.339-7.658s1.973-7.658,7.339-7.658c1.595,0,2.727,0.261,3.685,0.725v3.945
		c-0.958-0.406-1.944-0.667-3.221-0.667c-1.914,0-3.22,0.899-3.22,3.655S206.828,34.41,208.742,34.41z"/>
	<path fill="#FCFCFC" d="M223.416,27.042c-0.231-0.058-0.812-0.116-1.421-0.116c-1.421,0-2.697,0.493-3.075,0.841v10.24h-4.641
		V23.504h2.785l0.58,1.044c0.725-0.696,2.291-1.451,4.467-1.451c0.58,0,1.102,0.116,1.305,0.203V27.042z"/>
	<path fill="#FCFCFC" d="M224.429,30.756c0-4.525,1.449-7.658,6.816-7.658c5.366,0,6.816,3.133,6.816,7.658s-1.45,7.658-6.816,7.658
		C225.878,38.414,224.429,35.281,224.429,30.756z M229.07,30.756c0,2.9,0.58,3.945,2.176,3.945s2.176-1.045,2.176-3.945
		c0-2.901-0.58-3.945-2.176-3.945S229.07,27.855,229.07,30.756z"/>
	<path fill="#FCFCFC" d="M252.62,35.367h-4.699l-3.364-10.674l0.145,13.314h-4.583V16.252h5.83l4.322,13.547l4.321-13.547h5.831
		v21.756h-4.583l0.145-13.314L252.62,35.367z"/>
	<path fill="#FCFCFC" d="M270.541,27.855c0-0.667-0.465-1.015-1.713-1.015c-1.826,0-3.945,0.551-5.221,1.102v-3.887
		c0.986-0.436,3.162-0.958,5.221-0.958c5.223,0,6.209,2.233,6.209,5.482v9.428h-2.785l-0.639-1.103
		c-1.045,0.929-2.523,1.509-4.264,1.509c-3.684,0-4.932-2.438-4.932-4.613c0-3.916,2.871-4.496,5.482-4.757l2.641-0.261V27.855z
		 M268.595,31.568c-1.305,0.174-1.826,0.812-1.826,1.943c0,1.072,0.695,1.711,1.682,1.711c0.842,0,1.625-0.232,2.09-0.696v-3.22
		L268.595,31.568z"/>
	<path fill="#FCFCFC" d="M288.347,27.739c-1.336-0.551-2.988-0.928-4.672-0.928c-1.305,0-2.029,0.29-2.029,1.015
		c0,0.754,0.492,0.928,1.449,1.016c4.584,0.405,5.859,1.623,5.859,4.641c0,2.785-1.652,4.932-6.555,4.932
		c-2.668,0-4.205-0.494-5.279-0.929v-3.888c1.363,0.58,3.336,1.104,5.164,1.104c1.479,0,2.146-0.291,2.146-1.016
		c0-0.754-0.494-0.929-1.451-1.016c-4.584-0.406-5.859-1.625-5.859-4.641c0-2.959,1.914-4.932,6.381-4.932
		c2.641,0,3.887,0.348,4.846,0.754V27.739z"/>
	<path fill="#FCFCFC" d="M300.294,38.123c-0.639,0.174-1.74,0.291-2.379,0.291c-4.061,0-5.6-1.712-5.6-5.135v-5.917h-2.348v-3.075
		l2.348-0.638v-2.988l4.643-1.247v4.09h3.596v3.858h-3.596v5.541c0,1.131,0.436,1.77,1.914,1.77c0.609,0,1.189-0.116,1.422-0.174
		V38.123z"/>
	<path fill="#FCFCFC" d="M306.441,32.293c-0.117,1.885,0.869,2.437,3.133,2.437c2.174,0,3.799-0.435,4.844-0.957v3.626
		c-1.684,0.695-3.713,1.016-5.453,1.016c-4.787,0-7.107-2.438-7.107-7.658c0-5.222,2.291-7.658,6.787-7.658
		c6.209,0,6.643,4.641,6.266,9.195H306.441z M306.441,29.45h4.119c0.26-1.595-0.088-2.872-1.857-2.872
		C307.136,26.579,306.441,27.623,306.441,29.45z"/>
	<path fill="#FCFCFC" d="M326.335,27.042c-0.232-0.058-0.812-0.116-1.422-0.116c-1.422,0-2.697,0.493-3.074,0.841v10.24h-4.641
		V23.504h2.783l0.58,1.044c0.727-0.696,2.293-1.451,4.467-1.451c0.582,0,1.104,0.116,1.307,0.203V27.042z"/>
	<path fill="#FCFCFC" d="M338.777,27.739c-1.336-0.551-2.988-0.928-4.672-0.928c-1.305,0-2.029,0.29-2.029,1.015
		c0,0.754,0.492,0.928,1.449,1.016c4.584,0.405,5.859,1.623,5.859,4.641c0,2.785-1.652,4.932-6.555,4.932
		c-2.668,0-4.205-0.494-5.279-0.929v-3.888c1.363,0.58,3.336,1.104,5.164,1.104c1.479,0,2.146-0.291,2.146-1.016
		c0-0.754-0.494-0.929-1.451-1.016c-4.584-0.406-5.859-1.625-5.859-4.641c0-2.959,1.914-4.932,6.381-4.932
		c2.641,0,3.887,0.348,4.846,0.754V27.739z"/>
</g>
</svg>
