<svg width="250" height="40" viewBox="0 0 250 40" fill="none" xmlns="http://www.w3.org/2000/svg">
<g clip-path="url(#clip0_14_1508)">
<path d="M36.1654 36.2981H44.2022V12.0994H36.1654V36.2981ZM48.2206 8.06624H68.3125V0H48.2206V8.06624ZM36.1654 0H44.2022V8.06624H36.1654V0ZM24.1103 36.2981H32.147V0H24.1103V36.2981ZM12.0551 28.2319H20.0919V0H12.0551V28.2319ZM0 36.2981H8.03676V0H0V36.2981ZM48.2206 36.2981H56.2573V12.0994H48.2206V36.2981Z" fill="black"/>
<path d="M76.4033 21.174H83.0211C84.7706 21.174 86.0771 21.6816 86.9621 22.5911C87.805 23.4582 88.3108 24.6429 88.3108 26.0389C88.3108 28.8944 86.4352 30.8197 83.2738 30.8197H79.5643V36.2982H76.4028V21.174H76.4033ZM79.5648 28.3237H82.7263C84.3281 28.3237 85.1709 27.4354 85.1709 26.0601C85.1709 24.6429 84.2859 23.8388 82.7685 23.8388H79.5648V28.3237Z" fill="black"/>
<path d="M92.3573 27.1812H92.4206C93.0741 25.9542 93.8115 25.3199 95.0762 25.3199C95.3922 25.3199 95.5821 25.3411 95.7508 25.4046V27.9218H95.6875C93.812 27.7312 92.4628 28.7254 92.4628 31.0102V36.2981H89.5967V25.447H92.3573V27.1812Z" fill="black"/>
<path d="M96.1509 30.8832C96.1509 27.6466 98.4484 25.1506 101.799 25.1506C105.15 25.1506 107.448 27.6466 107.448 30.8832C107.448 34.1198 105.151 36.6158 101.799 36.6158C98.4484 36.6158 96.1509 34.1198 96.1509 30.8832ZM104.539 30.8832C104.539 28.7678 103.549 27.3295 101.799 27.3295C100.029 27.3295 99.0592 28.7678 99.0592 30.8832C99.0592 32.9986 100.029 34.4157 101.799 34.4157C103.549 34.4157 104.539 32.9986 104.539 30.8832Z" fill="black"/>
<path d="M108.48 36.6158H111.325C111.557 37.2929 112.167 37.8217 113.496 37.8217C115.118 37.8217 115.898 37.0393 115.898 35.5581V34.3734H115.835C115.202 35.0928 114.381 35.6423 113.011 35.6423C110.608 35.6423 108.248 33.7387 108.248 30.4598C108.248 27.2232 110.186 25.1501 112.926 25.1501C114.275 25.1501 115.266 25.679 115.919 26.5885H115.961V25.4461H118.722V35.4724C118.722 36.9954 118.238 38.0319 117.437 38.7725C116.531 39.6185 115.14 39.9996 113.538 39.9996C110.587 40.0001 108.774 38.7312 108.48 36.6158ZM116.046 30.3967C116.046 28.8102 115.203 27.4566 113.474 27.4566C112.02 27.4566 111.051 28.599 111.051 30.4179C111.051 32.258 112.02 33.3369 113.496 33.3369C115.308 33.3369 116.046 32.0044 116.046 30.3967Z" fill="black"/>
<path d="M123.337 27.1812H123.401C124.054 25.9542 124.791 25.3199 126.056 25.3199C126.372 25.3199 126.562 25.3411 126.731 25.4046V27.9218H126.668C124.792 27.7312 123.443 28.7254 123.443 31.0102V36.2981H120.577V25.447H123.338V27.1812H123.337Z" fill="black"/>
<path d="M134.128 35.0927H134.086C133.538 35.9175 132.759 36.5522 130.904 36.5522C128.69 36.5522 127.131 35.3887 127.131 33.2309C127.131 30.8408 129.07 30.0791 131.473 29.7408C133.264 29.4867 134.086 29.339 134.086 28.5137C134.086 27.7313 133.475 27.2236 132.274 27.2236C130.925 27.2236 130.272 27.7101 130.187 28.7466H127.637C127.722 26.843 129.134 25.1718 132.295 25.1718C135.541 25.1718 136.847 26.6312 136.847 29.1696V34.6904C136.847 35.5152 136.974 36.0017 137.227 36.1923V36.2981H134.465C134.297 36.0869 134.192 35.5792 134.128 35.0927ZM134.149 32.4697V30.8408C133.644 31.1372 132.864 31.3061 132.147 31.4755C130.651 31.8138 129.913 32.1526 129.913 33.1679C129.913 34.1833 130.588 34.5427 131.599 34.5427C133.243 34.5427 134.149 33.5274 134.149 32.4697Z" fill="black"/>
<path d="M138.659 25.4471H141.42V26.9066H141.484C142.074 25.9124 143.128 25.1506 144.624 25.1506C145.994 25.1506 147.09 25.9124 147.617 27.0543H147.659C148.397 25.8695 149.534 25.1506 150.905 25.1506C153.181 25.1506 154.466 26.6313 154.466 29.0002V36.2982H151.6V29.4872C151.6 28.2602 150.989 27.626 149.935 27.626C148.734 27.626 147.996 28.5566 147.996 29.9949V36.2982H145.13V29.4872C145.13 28.2602 144.519 27.626 143.465 27.626C142.306 27.626 141.526 28.5566 141.526 29.9949V36.2982H138.66V25.4471H138.659Z" fill="black"/>
<path d="M155.562 32.7868H158.218C158.408 34.0351 159.293 34.5851 160.578 34.5851C161.842 34.5851 162.559 34.0986 162.559 33.3369C162.559 32.3004 161.189 32.1945 159.714 31.8986C157.775 31.5179 155.878 30.9891 155.878 28.6196C155.878 26.2718 157.817 25.1506 160.283 25.1506C163.128 25.1506 164.709 26.5678 164.92 28.7467H162.327C162.201 27.5831 161.464 27.1601 160.241 27.1601C159.124 27.1601 158.386 27.5831 158.386 28.366C158.386 29.2967 159.819 29.3814 161.358 29.6985C163.17 30.0791 165.173 30.5868 165.173 33.1251C165.173 35.304 163.318 36.6153 160.621 36.6153C157.48 36.6158 155.73 35.0928 155.562 32.7868Z" fill="black"/>
<path d="M76.4033 0H80.703L82.8317 7.59387C83.3587 9.4975 83.7801 11.6764 83.7801 11.6764H83.8223C83.8223 11.6764 84.2226 9.4975 84.7495 7.59387L86.8777 0H91.2402V15.1242H88.3952V6.45148C88.3952 5.22441 88.5218 3.32077 88.5218 3.32077H88.4796C88.4796 3.32077 88.1425 5.09787 87.8261 6.1974L85.2337 15.1242H82.3043L79.7753 6.1974C79.4593 5.09736 79.1218 3.32077 79.1218 3.32077H79.0796C79.0796 3.32077 79.2062 5.22441 79.2062 6.45148V15.1242H76.4028V0H76.4033Z" fill="black"/>
<path d="M93.5796 0H96.6356V15.1242H93.5796V0Z" fill="black"/>
<path d="M98.1948 0H110.313V2.58069H105.782V15.1242H102.726V2.58069H98.1948V0Z" fill="black"/>
<path d="M113.327 9.37094L109.808 4.27307H113.075L114.992 7.38261H115.035L116.847 4.27307H119.818L116.468 9.34976L120.324 15.1242H116.91L114.908 11.5282H114.866L112.526 15.1242H109.386L113.327 9.37094Z" fill="black"/>
<path d="M125.192 0H129.492L131.62 7.59387C132.147 9.4975 132.569 11.6764 132.569 11.6764H132.611C132.611 11.6764 133.011 9.4975 133.538 7.59387L135.667 0H140.029V15.1242H137.184V6.45148C137.184 5.22441 137.311 3.32077 137.311 3.32077H137.269C137.269 3.32077 136.932 5.09787 136.615 6.1974L134.023 15.1242H131.093L128.564 6.1974C128.248 5.09736 127.911 3.32077 127.911 3.32077H127.869C127.869 3.32077 127.995 5.22441 127.995 6.45148V15.1242H125.192V0H125.192Z" fill="black"/>
<path d="M142.116 0H144.982V2.58069H142.116V0ZM142.116 4.27309H144.982V15.1242H142.116V4.27309Z" fill="black"/>
<path d="M146.31 9.70926C146.31 6.47268 148.417 3.97668 151.705 3.97668C154.508 3.97668 156.236 5.60556 156.615 7.95334H153.812C153.623 7.00153 152.885 6.28212 151.831 6.28212C150.103 6.28212 149.218 7.61456 149.218 9.70876C149.218 11.7606 150.04 13.1354 151.789 13.1354C152.948 13.1354 153.77 12.5219 153.96 11.2953H156.721C156.531 13.6007 154.74 15.4413 151.853 15.4413C148.438 15.4418 146.31 12.9458 146.31 9.70926Z" fill="black"/>
<path d="M160.725 6.00728H160.788C161.442 4.7802 162.179 4.146 163.444 4.146C163.76 4.146 163.95 4.16717 164.119 4.23069V6.74786H164.055C162.18 6.5573 160.83 7.55146 160.83 9.83623V15.1242H157.964V4.27304H160.725V6.00728H160.725Z" fill="black"/>
<path d="M164.519 9.70926C164.519 6.47268 166.817 3.97668 170.167 3.97668C173.518 3.97668 175.816 6.47268 175.816 9.70926C175.816 12.9458 173.519 15.4418 170.167 15.4418C166.816 15.4418 164.519 12.9458 164.519 9.70926ZM172.907 9.70926C172.907 7.59389 171.916 6.15558 170.167 6.15558C168.396 6.15558 167.427 7.59389 167.427 9.70926C167.427 11.8246 168.396 13.2418 170.167 13.2418C171.916 13.2418 172.907 11.8246 172.907 9.70926Z" fill="black"/>
<path d="M177.375 0H181.674L183.803 7.59387C184.33 9.4975 184.751 11.6764 184.751 11.6764H184.793C184.793 11.6764 185.194 9.4975 185.721 7.59387L187.849 0H192.211V15.1242H189.366V6.45148C189.366 5.22441 189.493 3.32077 189.493 3.32077H189.451C189.451 3.32077 189.114 5.09787 188.797 6.1974L186.205 15.1242H183.276L180.746 6.1974C180.43 5.09736 180.093 3.32077 180.093 3.32077H180.051C180.051 3.32077 180.177 5.22441 180.177 6.45148V15.1242H177.375V0Z" fill="black"/>
<path d="M200.768 13.9188H200.726C200.178 14.7436 199.398 15.3783 197.543 15.3783C195.33 15.3783 193.771 14.2147 193.771 12.057C193.771 9.66686 195.709 8.9051 198.112 8.56683C199.904 8.31274 200.726 8.16503 200.726 7.33975C200.726 6.55732 200.115 6.04965 198.914 6.04965C197.565 6.04965 196.911 6.53615 196.827 7.57266H194.277C194.361 5.66903 195.773 3.9978 198.935 3.9978C202.18 3.9978 203.487 5.45729 203.487 7.99564V13.5165C203.487 14.3412 203.614 14.8277 203.866 15.0183V15.1242H201.105C200.937 14.9129 200.831 14.4053 200.768 13.9188ZM200.789 11.2957V9.66686C200.283 9.96329 199.504 10.1322 198.787 10.3016C197.291 10.6399 196.553 10.9786 196.553 11.994C196.553 13.0093 197.227 13.3688 198.239 13.3688C199.883 13.3688 200.789 12.3534 200.789 11.2957Z" fill="black"/>
<path d="M204.625 11.6129H207.281C207.471 12.8611 208.356 13.4112 209.641 13.4112C210.905 13.4112 211.622 12.9247 211.622 12.1629C211.622 11.1264 210.252 11.0205 208.777 10.7246C206.838 10.344 204.941 9.81513 204.941 7.44567C204.941 5.09789 206.88 3.97668 209.346 3.97668C212.191 3.97668 213.772 5.39382 213.983 7.57272H211.39C211.264 6.40916 210.527 5.98619 209.304 5.98619C208.187 5.98619 207.449 6.40916 207.449 7.19209C207.449 8.12273 208.882 8.20743 210.421 8.52453C212.233 8.90516 214.236 9.41283 214.236 11.9512C214.236 14.1301 212.381 15.4413 209.684 15.4413C206.543 15.4418 204.793 13.9188 204.625 11.6129Z" fill="black"/>
<path d="M214.677 4.2731H216.174V0.888306H218.976V4.2726H220.831V6.17623H218.976V11.93C218.976 12.7336 219.419 13.0088 220.051 13.0088C220.409 13.0088 220.894 12.9877 220.894 12.9877V15.103C220.894 15.103 220.241 15.1454 219.102 15.1454C217.712 15.1454 216.173 14.5954 216.173 12.5435V6.17623H214.677V4.2731H214.677Z" fill="black"/>
<path d="M221.674 9.68809C221.674 6.47268 223.845 3.97668 227.007 3.97668C230.484 3.97668 232.339 6.64207 232.339 10.5129H224.499C224.71 12.1841 225.637 13.2206 227.26 13.2206C228.377 13.2206 229.03 12.7129 229.346 11.8882H232.17C231.77 13.813 230.063 15.4418 227.281 15.4418C223.698 15.4418 221.674 12.9247 221.674 9.68809ZM224.541 8.52453H229.346C229.262 7.14974 228.356 6.19793 227.049 6.19793C225.531 6.19793 224.794 7.1074 224.541 8.52453Z" fill="black"/>
<path d="M236.427 6.00728H236.49C237.144 4.7802 237.881 4.146 239.146 4.146C239.462 4.146 239.652 4.16717 239.821 4.23069V6.74786H239.757C237.882 6.5573 236.533 7.55146 236.533 9.83623V15.1242H233.667V4.27304H236.428V6.00728H236.427Z" fill="black"/>
<path d="M240.39 11.6129H243.045C243.235 12.8611 244.12 13.4112 245.406 13.4112C246.67 13.4112 247.387 12.9247 247.387 12.1629C247.387 11.1264 246.017 11.0205 244.542 10.7246C242.603 10.344 240.706 9.81513 240.706 7.44567C240.706 5.09789 242.645 3.97668 245.111 3.97668C247.956 3.97668 249.537 5.39382 249.747 7.57272H247.155C247.029 6.40916 246.291 5.98619 245.069 5.98619C243.951 5.98619 243.214 6.40916 243.214 7.19209C243.214 8.12273 244.647 8.20743 246.186 8.52453C247.998 8.90516 250.001 9.41283 250.001 11.9512C250.001 14.1301 248.146 15.4413 245.448 15.4413C242.307 15.4418 240.558 13.9188 240.39 11.6129Z" fill="black"/>
</g>
<defs>
<clipPath id="clip0_14_1508">
<rect width="250" height="40" fill="white"/>
</clipPath>
</defs>
</svg>
