<?xml version="1.0" encoding="utf-8"?>
<!DOCTYPE svg PUBLIC "-//W3C//DTD SVG 20010904//EN" "http://www.w3.org/TR/2001/REC-SVG-20010904/DTD/svg10.dtd">
<svg version="1.0" xmlns="http://www.w3.org/2000/svg" width="693px" height="150px" viewBox="0 0 693 150" preserveAspectRatio="xMidYMid meet">
    <g fill="#03282b">
        <path d="M19.10 143.42 c-3.29 -0.47 -6.20 -1.73 -8.76 -3.79 l-1.29 -1.03 -1.29 -1.82 -1.32 -1.85 -0.73 -1.85 -0.71 -1.85 -0.47 -2.32 -0.50 -2.35 0.18 -3.67 0.15 -3.70 0.65 -2.06 c0.35 -1.12 1.06 -2.85 1.56 -3.82 l0.88 -1.76 2.09 -2.09 2.09 -2.09 1.91 -0.94 c1.06 -0.50 2.65 -1.12 3.53 -1.35 l1.62 -0.44 3.09 0 3.12 0 1.73 0.44 1.76 0.44 1.82 0.88 1.79 0.88 1.47 1.32 1.47 1.32 0.91 1.44 0.94 1.44 0.56 1.62 c0.32 0.88 0.65 2.15 0.76 2.82 l0.21 1.23 -4.03 -0.09 -4.03 -0.09 -0.53 -1.56 -0.53 -1.56 -1 -1.06 -1 -1.03 -1.18 -0.62 -1.18 -0.65 -2.94 0 -2.94 0 -1.18 0.62 c-0.65 0.35 -1.68 1.15 -2.32 1.76 l-1.15 1.12 -0.85 1.82 -0.85 1.82 -0.35 2.67 -0.32 2.67 0.32 2.29 0.35 2.26 0.62 1.68 0.62 1.65 1.15 1.32 1.18 1.32 1.26 0.62 1.26 0.62 1.59 0.29 1.59 0.29 1.76 -0.32 1.79 -0.29 1.23 -0.73 1.23 -0.71 0.85 -1.26 c0.47 -0.68 0.97 -1.62 1.15 -2.12 l0.29 -0.88 4.03 -0.09 4.03 -0.09 -0.18 1.12 -0.18 1.12 -1.15 2.38 -1.18 2.38 -2 1.88 -2 1.88 -1.44 0.79 -1.47 0.76 -1.76 0.44 -1.76 0.47 -2.20 0.12 -2.20 0.15 -1.62 -0.24z"/>
        <path d="M53.28 143.30 l-1.85 -0.44 -1.76 -0.94 -1.76 -0.94 -1.35 -1.44 -1.32 -1.44 -0.71 -1.53 c-0.38 -0.85 -0.94 -2.38 -1.20 -3.44 l-0.47 -1.91 0.12 -3.09 0.15 -3.09 0.76 -2.03 0.73 -2.03 1.06 -1.50 1.03 -1.50 1.47 -1.15 1.50 -1.12 2.12 -0.73 2.15 -0.76 2.35 0 2.35 -0.03 1.62 0.41 c0.88 0.21 2.20 0.68 2.94 1.03 l1.32 0.68 1.35 1.18 1.32 1.20 0.91 1.70 0.91 1.70 0.47 1.79 0.47 1.82 0 2.53 0 2.53 -9.73 0 -9.76 0 0.18 1.32 0.21 1.32 0.59 1.15 0.59 1.18 0.94 0.71 c0.53 0.38 1.41 0.85 1.97 1.06 l1 0.32 1.06 0 c0.59 0 1.59 -0.15 2.23 -0.32 l1.18 -0.32 1.26 -1.32 1.26 -1.32 3.53 0.21 3.53 0.24 -0.21 0.62 c-0.12 0.32 -0.50 1.20 -0.85 1.94 l-0.68 1.32 -1 1 c-1.35 1.38 -2.79 2.26 -4.94 2.97 l-1.79 0.62 -2.70 0.12 -2.70 0.15 -1.82 -0.41z m8.14 -18.54 c0 -0.12 -0.21 -0.56 -0.44 -1.03 l-0.44 -0.85 -1.03 -0.79 -1.03 -0.76 -1.26 -0.15 -1.26 -0.15 -1.23 0.62 -1.20 0.62 -0.73 0.97 c-0.41 0.56 -0.76 1.15 -0.76 1.32 l0 0.35 4.70 0 4.70 0 0 -0.15z"/>
        <path d="M176.72 143.27 l-1.82 -0.41 -1.56 -0.76 -1.56 -0.76 -1.12 -1.09 c-1.56 -1.50 -2.65 -3.14 -3.38 -5.08 l-0.62 -1.68 -0.35 -2.44 -0.32 -2.47 0.44 -2.65 0.47 -2.62 1.06 -2.12 1.03 -2.12 1.56 -1.41 1.53 -1.38 1.82 -0.82 1.82 -0.85 2.09 -0.32 2.12 -0.32 2.50 0.35 2.50 0.35 2 1 2 1 1.09 1.20 1.09 1.23 0.76 1.62 0.73 1.62 0.15 1.26 0.15 1.29 -3.70 0 -3.67 0 -0.21 -0.85 -0.18 -0.85 -1.03 -1.18 -1 -1.20 -1.06 -0.32 -1.06 -0.35 -1.35 0.18 -1.35 0.18 -1.09 0.73 -1.09 0.71 -0.85 1.70 -0.82 1.70 0 3.53 0 3.53 0.82 1.70 0.85 1.70 1.06 0.71 1.09 0.71 1.18 0.21 1.20 0.18 1.20 -0.32 1.20 -0.32 1.03 -1.15 1.03 -1.15 0.21 -0.91 0.21 -0.91 3.67 0 3.70 0 -0.21 1.38 -0.18 1.35 -0.71 1.56 -0.71 1.56 -1.32 1.32 -1.32 1.32 -1.53 0.76 -1.53 0.79 -1.97 0.41 -1.94 0.41 -1.47 -0.03 -1.47 -0.03 -1.82 -0.38z"/>
        <path d="M203.81 143.42 c-0.65 -0.15 -1.73 -0.47 -2.44 -0.73 l-1.23 -0.50 -1.26 -1.41 -1.26 -1.41 -0.35 -1.18 -0.35 -1.15 0 -1.85 0 -1.85 0.35 -1.12 0.32 -1.15 1 -1.15 1 -1.18 1.56 -0.73 c1.94 -0.91 3.44 -1.26 7.91 -1.82 l3.50 -0.44 0.85 -0.41 0.85 -0.44 0.18 -0.76 0.18 -0.73 -0.38 -1.06 -0.41 -1.06 -0.82 -0.62 -0.85 -0.62 -1.94 0 -1.97 0 -1.12 0.71 -1.09 0.68 -0.47 0.88 -0.47 0.88 -3.26 -0.21 c-1.82 -0.12 -3.44 -0.29 -3.61 -0.41 l-0.35 -0.18 0.59 -1.59 0.62 -1.62 1.38 -1.38 1.38 -1.38 1.18 -0.59 c0.62 -0.32 1.97 -0.82 2.94 -1.06 l1.79 -0.47 2.35 0 2.38 0 1.56 0.32 c2.06 0.44 3.91 1.26 5.26 2.35 l1.12 0.88 0.88 1.79 0.91 1.79 0 10.84 0 10.82 -3.67 0 -3.67 0 0 -1.97 0 -2 -1.06 1.26 -1.06 1.23 -1.20 0.71 -1.23 0.71 -1.56 0.32 c-1.73 0.35 -3.17 0.38 -4.91 0.03z m7.49 -7.20 l1.03 -0.73 0.50 -0.82 0.50 -0.85 0.21 -1.26 0.21 -1.23 -0.56 0.15 c-0.29 0.12 -1.47 0.32 -2.59 0.50 -2.20 0.35 -3.82 0.94 -4.64 1.68 l-0.53 0.47 0 0.79 0 0.79 0.53 0.47 c0.26 0.26 0.85 0.62 1.23 0.76 l0.73 0.32 1.18 -0.18 1.18 -0.15 1.03 -0.71z"/>
        <path d="M258.24 143.39 c-0.76 -0.15 -2.15 -0.62 -3.06 -1.03 l-1.65 -0.71 -1.29 -1.06 -1.26 -1.03 -0.88 -1.29 -0.85 -1.26 -0.59 -1.56 c-0.73 -1.97 -1.20 -4.61 -1.20 -6.55 l0 -1.50 0.41 -1.91 c0.24 -1.06 0.71 -2.65 1.03 -3.56 l0.62 -1.65 1.65 -1.79 1.62 -1.82 2.12 -1.03 2.12 -1.03 2.03 -0.29 2 -0.32 2.26 0.32 2.23 0.29 1.82 0.88 1.82 0.85 1.44 1.32 1.44 1.35 0.73 1.38 0.76 1.41 0.47 1.82 0.47 1.79 0.21 2.67 0.18 2.67 -9.93 0 -9.93 0 0.21 1.26 0.21 1.23 0.62 1.29 0.62 1.26 1.29 0.82 1.29 0.82 1.44 0.21 1.44 0.21 1.59 -0.47 1.62 -0.47 0.91 -1.03 c0.50 -0.59 0.91 -1.15 0.91 -1.26 l0 -0.21 3.59 0.24 c2 0.12 3.64 0.29 3.70 0.35 0.06 0.06 -0.24 0.91 -0.68 1.88 l-0.82 1.79 -1.38 1.29 -1.38 1.29 -1.26 0.65 c-0.68 0.35 -1.85 0.82 -2.62 1.06 l-1.35 0.41 -2.65 0.15 -2.65 0.12 -1.41 -0.29z m7.73 -18.93 l0 -0.41 -0.94 -1.09 -0.97 -1.09 -0.94 -0.38 c-0.53 -0.24 -1.32 -0.41 -1.76 -0.41 l-0.79 0 -1.26 0.62 -1.29 0.62 -0.71 1.06 c-0.41 0.59 -0.73 1.18 -0.73 1.29 l0 0.24 4.70 0 4.70 0 0 -0.44z"/>
        <path d="M105.21 142.98 l-1.35 -0.41 -1.20 -1.03 -1.18 -1.03 -0.56 -1.12 -0.56 -1.12 -0.15 -8.82 -0.15 -8.82 -1.97 -0.09 -2 -0.09 0 -2.91 0 -2.91 2 -0.09 1.97 -0.09 0.09 -3.29 0.09 -3.32 3.79 0 3.82 0 0 3.38 0 3.38 2.79 0 2.79 0 0 2.94 0 2.91 -2.70 0.09 -2.73 0.09 0 7.55 0 7.55 0.68 0.68 0.68 0.68 1.59 -0.03 1.62 0 0.26 1.03 c0.15 0.59 0.44 1.82 0.62 2.76 l0.35 1.73 -0.15 0.15 c-0.09 0.06 -0.68 0.26 -1.29 0.41 l-1.12 0.26 -2.35 -0.03 -2.35 0 -1.32 -0.41z"/>
        <path d="M235.76 142.98 l-1.29 -0.38 -1.09 -0.79 -1.12 -0.76 -0.85 -1.53 -0.85 -1.53 -0.09 -8.73 -0.09 -8.76 -1.91 0 -1.88 0 0 -2.94 0 -2.94 1.91 0 1.91 0 0 -3.38 0 -3.38 3.97 0 3.97 0 0 3.38 0 3.38 2.65 0 2.65 0 0 2.94 0 2.94 -2.65 0 -2.65 0 0 7.61 0 7.61 0.56 0.68 0.56 0.71 1.76 0 1.76 -0.03 0.50 2.38 c0.26 1.29 0.56 2.56 0.62 2.82 l0.15 0.47 -1.32 0.35 -1.32 0.32 -2.29 -0.03 -2.29 0 -1.26 -0.41z"/>
        <path d="M75.24 128.87 l0 -14.25 3.82 0 3.79 0 0.09 2.59 0.09 2.56 0.53 -1.09 c0.65 -1.41 2.12 -3.09 3.14 -3.61 0.47 -0.24 1.38 -0.56 2.09 -0.71 l1.29 -0.29 1.23 0.18 1.26 0.18 0 3.41 0 3.44 -2.06 -0.12 -2.06 -0.12 -1.03 0.18 -1.03 0.21 -1.09 0.94 -1.06 0.94 -0.53 1.18 -0.56 1.18 0 8.76 0 8.73 -3.97 0 -3.97 0 0 -14.25z"/>
        <path d="M118.44 128.87 l0 -14.25 3.97 0 3.97 0 0 14.25 0 14.25 -3.97 0 -3.97 0 0 -14.25z"/>
        <path d="M134.60 131.81 l0 -11.31 -2.06 0 -2.06 0 0 -2.94 0 -2.94 2.06 0 2.06 0 0 -2.06 0 -2.06 0.59 -1.68 0.59 -1.68 1.23 -1.26 1.23 -1.26 1.50 -0.56 c0.79 -0.29 2.15 -0.65 2.97 -0.76 l1.50 -0.18 2.41 0.35 2.44 0.35 0.15 0.38 0.15 0.41 -0.35 1.53 c-0.21 0.85 -0.47 2.03 -0.62 2.59 l-0.26 1.06 -2.03 -0.12 -2.06 -0.12 -0.73 0.73 -0.76 0.76 0 1.79 0 1.76 2.79 0 2.79 0 0 2.94 0 2.94 -2.79 0 -2.79 0 0 11.31 0 11.31 -3.97 0 -3.97 0 0 -11.31z"/>
        <path d="M153.12 128.87 l0 -14.25 3.82 0 3.82 0 0 14.25 0 14.25 -3.82 0 -3.82 0 0 -14.25z"/>
        <path d="M120.53 110.27 l-1.03 -0.50 -0.56 -0.79 -0.59 -0.79 0 -1.29 0 -1.29 0.62 -0.88 0.65 -0.91 1 -0.47 1 -0.47 0.82 0 0.82 0 1.20 0.59 1.18 0.59 0.53 0.85 0.50 0.85 0 1.15 0 1.12 -0.56 0.91 -0.56 0.91 -1.03 0.47 -1.03 0.50 -1 0 -0.97 0 -1 -0.53z"/>
        <path d="M154.97 110.33 l-0.97 -0.47 -0.59 -0.97 -0.59 -0.94 0 -1.12 0 -1.09 0.50 -0.85 0.53 -0.85 1.26 -0.62 1.26 -0.62 1.18 0.15 1.18 0.15 1 0.76 1 0.76 0.29 1.09 0.32 1.09 -0.29 1.06 -0.29 1.06 -0.65 0.62 c-0.85 0.79 -2.06 1.26 -3.26 1.26 l-0.94 0 -0.94 -0.47z"/>
        <path d="M380.89 84.73 c-0.56 -0.06 -1.85 -0.29 -2.82 -0.53 l-1.82 -0.41 -1.68 -0.79 -1.70 -0.82 -1.65 -1.53 -1.68 -1.53 -0.79 -1.47 -0.79 -1.44 -0.47 -2.03 -0.47 -2.03 0.18 -2.38 0.18 -2.41 0.62 -2 c0.35 -1.12 1.03 -2.79 1.53 -3.76 l0.91 -1.70 1.68 -1.70 1.65 -1.70 1.76 -1 c4.58 -2.70 9.20 -3.85 20.37 -5.11 2.35 -0.24 5.08 -0.65 6.11 -0.88 l1.82 -0.41 1.18 -0.59 1.18 -0.59 0.41 -0.82 0.44 -0.82 0.18 -1.76 0.21 -1.76 -0.32 -1.65 -0.35 -1.68 -0.85 -1.15 -0.85 -1.18 -1.65 -0.76 -1.65 -0.79 -2.44 -0.18 -2.41 -0.18 -2.06 0.35 -2.03 0.35 -2.47 1.20 -2.47 1.18 -1.82 1.82 c-1 0.97 -2 2.09 -2.23 2.44 l-0.44 0.62 -4.61 -1.12 c-2.56 -0.62 -4.73 -1.20 -4.82 -1.29 l-0.18 -0.18 1.32 -1.97 c1.85 -2.76 3.53 -4.58 5.79 -6.32 l1.94 -1.47 2.65 -1.26 2.65 -1.29 2.35 -0.62 c1.26 -0.32 3.53 -0.73 5 -0.91 l2.65 -0.32 3.09 0.15 3.09 0.18 2.35 0.62 2.35 0.59 1.91 0.94 1.91 0.94 1.62 1.62 1.62 1.65 0.82 1.68 0.79 1.70 0.29 1.50 0.29 1.53 0 2.59 0 2.59 -3.23 19.43 c-1.76 10.67 -3.23 19.46 -3.23 19.54 0 0.09 -2.38 0.15 -5.29 0.15 l-5.29 0 0 -0.68 c0 -0.38 0.26 -2.15 0.59 -3.88 0.29 -1.76 0.50 -3.26 0.41 -3.35 -0.06 -0.09 -0.56 0.38 -1.09 1.03 -1.06 1.29 -1.91 2.12 -3.59 3.50 l-1.18 0.97 -2.15 1.06 -2.12 1.09 -2.26 0.56 -2.26 0.59 -2.79 0.12 c-1.56 0.06 -3.29 0.06 -3.85 -0.03z m11.31 -10.40 l1.76 -0.53 1.88 -1.12 1.85 -1.12 1.70 -1.82 1.70 -1.79 0.79 -1.70 0.79 -1.68 0.56 -2.76 c0.29 -1.53 0.56 -3.06 0.56 -3.38 l0 -0.59 -0.47 0.18 c-0.73 0.29 -6.64 1.29 -10.35 1.79 -3.94 0.50 -6.44 1.12 -8.43 2.09 l-1.50 0.68 -1.20 1.06 -1.23 1.06 -0.76 1.59 -0.79 1.59 0 1.38 0 1.38 0.85 1.20 0.85 1.20 1.29 0.73 1.32 0.71 1.62 0.38 1.62 0.35 1.91 -0.15 1.91 -0.18 1.76 -0.56z"/>
        <path d="M442.51 84.61 l-2.88 -0.24 -2.26 -0.62 -2.26 -0.62 -1.91 -0.94 -1.91 -0.94 -1.79 -1.76 -1.79 -1.76 -0.79 -1.65 -0.79 -1.68 -0.47 -2.38 -0.47 -2.41 0.26 -0.24 0.26 -0.24 4.56 -0.65 c2.50 -0.35 4.85 -0.73 5.17 -0.79 l0.62 -0.18 0.21 1.29 0.21 1.26 0.79 1.47 0.79 1.44 1.26 0.97 1.26 0.97 1.68 0.50 1.68 0.50 2.79 0 2.79 0 1.62 -0.38 c0.88 -0.24 2.44 -0.79 3.47 -1.26 l1.85 -0.88 1.41 -1.41 1.44 -1.44 0.47 -1.38 c0.26 -0.76 0.47 -1.76 0.47 -2.23 l0 -0.82 -0.47 -1.15 -0.47 -1.18 -0.94 -0.73 c-1.53 -1.15 -2.88 -1.62 -9.43 -3.14 -7.38 -1.73 -8.49 -2.09 -11.14 -3.44 l-2.03 -1.06 -1.35 -1.32 -1.38 -1.35 -0.85 -1.76 -0.85 -1.73 -0.12 -2.82 -0.12 -2.79 0.50 -1.91 0.50 -1.91 1 -1.91 1 -1.91 1.35 -1.56 1.35 -1.53 1.79 -1.29 c1 -0.71 2.65 -1.70 3.64 -2.20 l1.82 -0.91 2.47 -0.71 2.47 -0.73 3.06 -0.35 3.03 -0.35 2.65 0.21 2.67 0.21 2.06 0.44 2.06 0.47 2.15 1.03 2.15 1 1.70 1.70 1.70 1.70 0.76 1.59 0.79 1.59 0.47 1.97 0.50 1.97 -0.18 0.41 -0.15 0.41 -4.09 0.65 c-2.23 0.38 -4.41 0.73 -4.82 0.82 l-0.76 0.15 -0.65 -1.82 -0.68 -1.85 -1.23 -1.23 -1.26 -1.23 -1.73 -0.68 -1.73 -0.68 -2.79 0 -2.79 0 -1.76 0.50 c-2.38 0.71 -3.79 1.47 -5.29 2.88 l-1.29 1.18 -0.62 1.23 -0.59 1.23 0 1.65 0 1.62 0.68 1 0.65 1 1.79 0.94 1.79 0.97 7.17 1.76 7.17 1.79 2.65 1.26 2.65 1.26 1.38 1.23 1.38 1.23 0.97 1.97 0.97 1.97 0 3.09 0 3.09 -0.68 1.91 c-0.35 1.06 -1.03 2.59 -1.50 3.41 l-0.88 1.50 -1.53 1.68 -1.53 1.68 -1.79 1.26 c-2.35 1.68 -4.79 2.88 -7.67 3.79 l-2.35 0.73 -2.35 0.32 c-3.56 0.44 -5.58 0.53 -8.76 0.29z"/>
        <path d="M632.93 84.61 l-2.94 -0.24 -2.65 -0.76 -2.65 -0.76 -1.47 -0.79 -1.47 -0.79 -1.65 -1.53 -1.68 -1.53 -0.91 -1.73 -0.91 -1.73 -0.47 -1.70 c-0.24 -0.97 -0.44 -2.20 -0.44 -2.79 l0 -1.06 4.64 -0.68 c2.53 -0.35 4.91 -0.73 5.26 -0.82 l0.65 -0.15 0.18 0.85 c0.12 0.44 0.41 1.41 0.65 2.12 l0.47 1.32 1.15 1.23 1.12 1.23 1.56 0.68 1.53 0.68 3.41 0.12 3.41 0.12 1.88 -0.47 1.88 -0.47 1.85 -0.94 1.88 -0.94 1.18 -1.32 1.18 -1.35 0.41 -1 0.41 -0.97 0 -1.47 0 -1.44 -0.41 -0.79 c-0.56 -1.06 -1.53 -1.91 -3.06 -2.67 l-1.26 -0.65 -6.76 -1.59 -6.73 -1.59 -1.76 -0.73 c-1 -0.38 -2.53 -1.15 -3.41 -1.68 l-1.65 -1 -1.12 -1.26 -1.12 -1.26 -0.62 -1.26 -0.59 -1.29 -0.32 -1.88 -0.35 -1.91 0.32 -2.20 0.32 -2.23 0.59 -1.62 0.62 -1.62 1.12 -1.70 1.12 -1.73 1.73 -1.62 1.73 -1.65 1.76 -1.06 c3.32 -2 7.11 -3.23 11.76 -3.79 l2.65 -0.32 2.94 0.18 2.94 0.18 2.35 0.59 2.35 0.59 1.85 0.94 1.88 0.94 1.56 1.56 1.59 1.53 1.03 2.15 1 2.15 0.35 1.73 0.35 1.70 -0.26 0.21 c-0.18 0.18 -9.11 1.79 -9.85 1.79 l-0.24 0 0 -0.50 c0 -0.29 -0.32 -1.20 -0.71 -2 l-0.68 -1.50 -1.38 -1.20 -1.41 -1.23 -1.50 -0.50 -1.53 -0.53 -2.50 0 -2.50 0 -1.62 0.41 -1.62 0.38 -1.73 0.85 -1.70 0.85 -1.26 1.32 -1.26 1.29 -0.47 1.38 c-0.26 0.73 -0.47 1.73 -0.47 2.20 l0 0.85 0.41 0.97 0.41 0.94 1.12 0.94 1.15 0.94 1.59 0.62 c0.88 0.32 4.06 1.18 7.05 1.91 6.67 1.59 8.70 2.23 11.26 3.56 l1.97 1.03 1.59 1.65 1.59 1.68 0.68 1.76 0.65 1.76 0 2.53 0 2.50 -0.50 1.73 c-0.68 2.32 -1.88 4.64 -3.53 6.70 l-1.35 1.70 -1.97 1.47 -1.97 1.47 -2.35 1.15 -2.35 1.15 -2.76 0.73 -2.76 0.73 -2.23 0.18 c-1.23 0.09 -2.70 0.21 -3.26 0.26 -0.56 0.06 -2.35 -0.03 -3.94 -0.15z"/>
        <path d="M137.25 84.20 c-2.56 -0.53 -4.17 -1.15 -6.35 -2.35 l-1.85 -1.03 -1.59 -1.47 -1.59 -1.47 -1.23 -1.85 c-1.53 -2.35 -2.47 -4.70 -3.12 -7.70 l-0.53 -2.35 0.03 -3.97 0 -3.97 0.62 -3.09 c0.35 -1.70 0.97 -4.14 1.38 -5.44 l0.73 -2.35 1.44 -2.97 1.44 -2.94 1.73 -2.35 1.73 -2.32 2.15 -2.03 2.15 -2 2.15 -1.41 2.15 -1.41 2.20 -0.91 2.20 -0.91 2.59 -0.65 2.59 -0.65 4.41 0.03 4.41 0 2.23 0.62 2.26 0.62 2.06 1.03 2.09 1.06 1.88 1.76 1.88 1.76 1.06 1.97 c0.56 1.12 1.23 2.67 1.47 3.53 l0.47 1.53 0.21 2.35 0.21 2.38 -5.44 0 -5.44 0 -0.18 -1.32 -0.21 -1.29 -0.65 -1.41 -0.68 -1.41 -1.18 -1.18 -1.18 -1.18 -1.35 -0.65 -1.35 -0.65 -1.85 -0.32 -1.88 -0.35 -1.76 0.21 c-1 0.12 -2.59 0.47 -3.56 0.76 l-1.76 0.53 -1.47 0.94 c-0.79 0.50 -2.03 1.38 -2.73 1.97 l-1.23 1.03 -1.35 1.76 -1.32 1.76 -1.18 2.41 -1.18 2.44 -0.71 2.79 -0.71 2.79 -0.32 3 -0.32 3 0.32 2.65 0.32 2.62 0.53 1.47 c0.32 0.79 1 2.12 1.53 2.94 l0.94 1.47 1.29 1 1.32 1 1.65 0.65 1.68 0.62 2.06 0.15 2.06 0.15 1.76 -0.32 1.76 -0.32 2.20 -1.09 2.20 -1.06 1.68 -1.73 1.70 -1.70 0.88 -1.76 0.88 -1.76 5.32 0 5.29 0 -0.18 0.68 c-0.35 1.20 -2.47 5.50 -3.38 6.82 -0.50 0.71 -1.65 2.12 -2.56 3.12 l-1.68 1.79 -1.79 1.26 -1.79 1.29 -2.50 1.20 -2.47 1.18 -2.35 0.62 -2.35 0.62 -4.56 0.12 -4.56 0.09 -1.91 -0.41z"/>
        <path d="M232.44 84.20 l-1.94 -0.38 -2.03 -0.82 c-2.26 -0.88 -2.88 -1.23 -4.88 -2.73 l-1.41 -1.03 -1.44 -1.76 -1.44 -1.79 -0.88 -1.76 c-0.50 -0.97 -1.18 -2.62 -1.50 -3.67 l-0.59 -1.91 -0.32 -2.29 c-0.73 -5.53 0.06 -12.20 2.15 -18.13 1.09 -3.17 2.23 -5.41 4.17 -8.38 l1.56 -2.38 2.53 -2.41 2.50 -2.41 1.70 -1.09 c3.88 -2.47 7.85 -3.91 12.58 -4.53 l2.65 -0.35 2.82 0.21 2.79 0.18 2.26 0.59 2.29 0.56 2.35 1.23 2.38 1.23 1.97 1.94 2 1.94 1.09 1.91 1.12 1.88 0.82 2.53 0.82 2.50 0.35 2.79 0.35 2.79 -0.18 3.09 -0.21 3.09 -0.56 2.85 -0.59 2.85 -0.91 2.59 c-2.79 7.85 -7.46 13.84 -13.87 17.66 l-2.03 1.20 -2.44 0.88 -2.44 0.88 -2.41 0.44 -2.41 0.47 -3.44 -0.03 -3.41 -0.03 -1.94 -0.38z m10.67 -10.40 c2.29 -0.79 4.11 -1.91 6.11 -3.73 l1.68 -1.56 1.41 -2.12 1.41 -2.09 0.97 -2.35 c0.56 -1.29 1.26 -3.38 1.59 -4.67 l0.62 -2.35 0.24 -2.59 0.24 -2.59 -0.26 -1.88 c-0.12 -1.03 -0.44 -2.56 -0.68 -3.38 l-0.44 -1.50 -1.15 -1.73 -1.15 -1.73 -0.85 -0.62 c-0.47 -0.35 -1.38 -0.91 -2.03 -1.23 l-1.18 -0.59 -1.79 -0.35 -1.79 -0.32 -2.12 0.44 -2.12 0.44 -1.50 0.71 -1.53 0.71 -1.79 1.35 -1.79 1.38 -1.56 1.97 -1.53 2 -1.29 2.67 -1.29 2.65 -0.73 2.85 -0.71 2.85 -0.26 2.62 -0.26 2.59 0.26 1.88 c0.12 1.03 0.44 2.56 0.71 3.35 l0.47 1.47 0.88 1.38 0.88 1.38 1 0.91 c1.23 1.06 2.50 1.73 4.23 2.23 l1.32 0.38 2.06 -0.12 2.06 -0.12 1.68 -0.59z"/>
        <path d="M535.33 84.23 c-2.67 -0.53 -5.61 -1.62 -7.67 -2.85 l-1.65 -1 -2 -2.12 -2.03 -2.12 -1.15 -2.44 -1.18 -2.44 -0.53 -2.06 -0.56 -2.06 0.03 -5 0.03 -5 0.62 -3 0.65 -3 0.91 -2.59 c1.20 -3.35 2.76 -6.44 4.70 -9.20 l1.53 -2.20 2.23 -2.20 2.23 -2.23 2.32 -1.53 2.32 -1.53 2.17 -0.88 c1.20 -0.50 3.20 -1.20 4.44 -1.53 l2.26 -0.62 4.70 -0.03 4.70 -0.03 2.35 0.68 2.32 0.68 2.09 1.09 2.06 1.09 1.91 1.91 1.91 1.91 1.09 2.06 1.09 2.09 0.68 2.32 0.68 2.35 -0.03 5 0 5 -0.50 2.79 c-0.26 1.53 -0.50 2.88 -0.50 3.03 l0 0.21 -20.13 0 -20.10 0 -0.21 1.06 -0.18 1.03 0.12 3.29 0.15 3.29 0.53 1.32 c0.29 0.73 0.91 1.82 1.35 2.44 l0.79 1.15 1.20 0.88 1.23 0.88 1.44 0.56 1.44 0.53 2.67 0.35 2.70 0.32 2.29 -0.32 2.32 -0.29 1.62 -0.59 1.62 -0.56 1.62 -1.09 1.65 -1.09 1.20 -1.35 c0.68 -0.76 1.41 -1.76 1.65 -2.20 l0.41 -0.85 0.35 0.15 c0.21 0.06 2.41 0.50 4.91 0.94 2.50 0.47 4.61 0.88 4.64 0.91 0.06 0.03 -0.29 0.88 -0.82 1.85 l-0.94 1.76 -1.59 1.91 -1.59 1.94 -1.85 1.47 -1.82 1.47 -2.94 1.47 -2.94 1.47 -2.94 0.76 -2.94 0.76 -4.56 0.12 -4.56 0.09 -2.06 -0.38z m23.89 -37.12 l-0.12 -2.59 -0.82 -1.82 -0.85 -1.85 -1.38 -1.29 c-1.59 -1.50 -2.79 -2.17 -4.85 -2.70 l-1.47 -0.41 -1.18 0 -1.20 0 -1.70 0.44 c-2.20 0.59 -4.35 1.65 -6.52 3.23 l-1.73 1.29 -1.53 1.82 -1.53 1.82 -1.06 2 c-0.56 1.09 -1.03 2.12 -1.03 2.29 l0 0.32 13.55 0 13.55 0 -0.12 -2.56z"/>
        <path d="M495.56 83.91 l-1.85 -0.41 -1.59 -0.73 -1.62 -0.73 -1.41 -1.41 -1.41 -1.41 -0.68 -1.47 -0.71 -1.47 -0.29 -2.12 -0.32 -2.15 2.88 -17.55 c1.56 -9.67 2.88 -17.78 2.91 -18.02 l0.06 -0.44 -4.03 -0.09 -4.06 -0.09 0.03 -0.35 c0 -0.21 0.29 -2.06 0.65 -4.17 l0.68 -3.82 4.03 -0.09 4.06 -0.09 0.21 -0.50 c0.09 -0.26 0.65 -3.35 1.23 -6.82 l1.03 -6.32 5.38 -0.09 5.35 -0.06 0 0.62 c0 0.56 -1.53 10.08 -1.94 12.08 l-0.18 0.82 5.76 0 5.76 0 0 0.38 c0 0.18 -0.29 2.17 -0.65 4.41 l-0.65 4.03 -5.82 0 -5.82 0 -0.15 0.68 c-0.09 0.35 -1.26 7.41 -2.65 15.69 l-2.50 15.05 0 2.15 0 2.15 0.59 0.94 0.56 0.94 0.97 0.53 0.97 0.53 3.26 -0.03 3.26 -0.03 0.24 4.26 0.21 4.23 -0.26 0.24 c-0.12 0.15 -1.26 0.47 -2.50 0.71 l-2.26 0.47 -2.44 -0.03 -2.44 -0.03 -1.85 -0.38z"/>
        <path d="M94.63 83.61 c0 -0.26 9.11 -54.93 9.26 -55.63 l0.15 -0.65 5.47 0 5.47 0 -0.18 0.79 c-0.24 1.03 -9.29 55.16 -9.29 55.43 l0 0.21 -5.44 0 -5.44 0 0 -0.15z"/>
        <path d="M177.22 83.55 c0 -0.32 9.08 -54.72 9.26 -55.58 l0.15 -0.65 5.26 0 5.23 0 -0.73 4.29 -0.71 4.26 0.21 0.21 0.21 0.21 0.35 -0.53 c0.18 -0.29 0.88 -1.32 1.59 -2.29 l1.23 -1.73 1.70 -1.32 1.68 -1.35 1.79 -0.85 1.79 -0.85 1.88 -0.47 1.88 -0.44 3.26 0 c1.79 0 3.32 0.06 3.41 0.15 l0.15 0.15 -0.85 5.05 c-0.47 2.79 -0.88 5.08 -0.91 5.11 -0.03 0.03 -0.65 -0.06 -1.38 -0.18 l-1.32 -0.26 -2.65 -0.03 -2.67 0 -1.70 0.44 c-0.94 0.24 -2.41 0.79 -3.29 1.23 l-1.59 0.76 -1.73 1.56 -1.73 1.59 -0.94 1.44 c-0.50 0.82 -1.18 2.17 -1.50 3 l-0.59 1.50 -2.91 17.75 c-1.62 9.79 -2.94 17.84 -2.94 17.90 0 0.09 -2.44 0.15 -5.44 0.15 l-5.44 0 0 -0.21z"/>
        <path d="M3.53 83.32 c0 -0.38 12.37 -74.41 12.49 -74.71 l0.12 -0.38 6.76 0 6.76 0 0.15 0.53 c0.09 0.26 3.20 12.99 6.94 28.27 3.73 15.28 6.91 28.27 7.08 28.89 l0.29 1.12 0.47 -0.09 0.44 -0.09 16.22 -28.21 c8.90 -15.55 16.49 -28.71 16.84 -29.33 l0.65 -1.09 6.82 0 6.82 0 -0.18 0.82 c-0.09 0.44 -2.88 17.37 -6.23 37.62 l-6.11 36.80 -5.41 0 -5.38 0 0.15 -0.65 c0.09 -0.38 2.06 -12.26 4.41 -26.39 2.35 -14.14 4.35 -26.07 4.44 -26.51 l0.18 -0.82 -0.41 0 -0.41 0 -15.58 27.13 -15.58 27.10 -4.56 0.09 -4.53 0.06 -6.44 -26.80 c-3.56 -14.75 -6.50 -27.01 -6.58 -27.19 l-0.12 -0.38 -0.35 0 -0.38 0 -4.53 27.19 -4.53 27.19 -5.35 0 c-2.97 0 -5.38 -0.06 -5.38 -0.15z"/>
        <path d="M276.41 82.82 c0.09 -0.38 2.85 -17.02 6.17 -36.97 3.32 -19.96 6.08 -36.59 6.17 -36.97 l0.15 -0.65 6.82 0.06 6.82 0.09 7.17 29.24 c3.94 16.08 7.20 29.30 7.29 29.36 0.09 0.09 0.35 0.03 0.59 -0.12 l0.44 -0.29 16.69 -29.10 16.72 -29.10 6.79 -0.09 6.79 -0.06 0 0.47 c0 0.47 -11.90 72.74 -12.20 74.12 l-0.15 0.65 -5.29 0 -5.29 0 0 -0.35 c-0.03 -0.21 2 -12.37 4.44 -27.04 l4.50 -26.69 -0.21 -0.18 -0.18 -0.18 -0.26 0.18 c-0.18 0.09 -7.29 12.34 -15.81 27.21 l-15.55 27.04 -4.47 0 -4.47 0 -0.26 -0.97 c-0.15 -0.56 -3.12 -12.78 -6.55 -27.21 l-6.29 -26.19 -0.44 0.06 -0.41 0.09 -4.20 25.13 c-2.29 13.81 -4.32 26.01 -4.50 27.13 l-0.35 1.97 -5.41 0 -5.41 0 0.15 -0.65z"/>
        <path d="M576.91 83.26 c0 -0.15 2.09 -12.75 4.61 -28.07 l4.64 -27.86 5.20 0 5.23 0 0 0.38 c0 0.18 -0.32 2.17 -0.71 4.41 l-0.68 4.03 0.32 0 0.32 -0.03 1.03 -1.62 1.03 -1.65 1.82 -1.68 1.85 -1.70 2.12 -1.06 2.15 -1.09 1.76 -0.44 1.73 -0.44 3.47 0 3.47 0 0 0.53 c0 0.26 -0.35 2.65 -0.79 5.29 l-0.79 4.79 -0.47 -0.21 c-0.24 -0.09 -1.97 -0.24 -3.85 -0.32 l-3.41 -0.18 -1.59 0.38 -1.59 0.35 -1.85 0.88 -1.85 0.88 -2.06 1.91 -2.03 1.94 -1.20 2.38 -1.18 2.38 -2.76 16.90 c-1.53 9.29 -2.88 17.40 -2.97 18.02 l-0.18 1.09 -5.41 0 -5.41 0 0 -0.21z"/>
        <path d="M676.54 31.12 l-1.29 -0.26 -1.53 -0.73 -1.50 -0.73 -1.53 -1.62 -1.53 -1.62 -0.79 -1.68 -0.79 -1.70 0 -2.94 0 -2.94 0.94 -1.94 0.97 -1.94 1.47 -1.38 1.50 -1.38 1.68 -0.79 1.68 -0.79 3.09 0 3.09 0 1.76 0.85 1.76 0.88 1.47 1.47 1.50 1.50 0.65 1.41 c0.35 0.76 0.79 2.09 0.97 2.91 l0.32 1.53 -0.15 1.62 -0.15 1.65 -0.68 1.76 -0.65 1.76 -1.79 1.76 -1.79 1.79 -1.41 0.65 -1.41 0.68 -1.50 0.26 c-1.70 0.32 -2.53 0.32 -4.35 -0.03z m5.14 -3.61 c0.82 -0.38 1.73 -0.91 2.06 -1.18 l0.59 -0.44 -1.76 -0.03 -1.79 0 -0.94 -1.91 -0.94 -1.91 -0.59 0 -0.59 0 0 1.91 0 1.91 -1.76 0 -1.76 0 0 -6.20 0 -6.20 4.14 0.12 4.14 0.09 0.85 0.97 0.85 0.94 0 2.09 0 2.09 -0.47 0.79 -0.47 0.82 0.53 1 0.53 1 0.18 1.18 0.15 1.18 0.97 -1.29 0.97 -1.32 0.44 -1.59 0.47 -1.59 -0.35 -1.35 -0.32 -1.38 -0.73 -1.23 -0.71 -1.20 -1.23 -1.06 -1.20 -1.06 -1.59 -0.59 -1.59 -0.59 -0.85 0 -0.85 0 -1.65 0.62 -1.62 0.62 -1.41 1.35 -1.41 1.38 -0.68 1.47 -0.71 1.47 0 1.47 0 1.50 0.59 1.35 0.62 1.32 1.12 1.23 1.09 1.23 0.91 0.50 c0.50 0.26 1.32 0.65 1.79 0.85 l0.88 0.32 1.32 0.03 1.32 0.03 1.47 -0.71z m-1.79 -9.26 l0.50 -0.56 -0.68 -0.47 -0.65 -0.47 -0.68 0 -0.68 0 0 1.03 0 1.03 0.82 0 0.85 0 0.50 -0.56z"/>
        <path d="M108.80 17.60 l-1.23 -0.62 -0.85 -1.03 -0.85 -1.03 -0.35 -1.29 -0.35 -1.26 0.18 -1.32 0.21 -1.32 0.97 -1.41 0.97 -1.41 1.56 -0.79 1.53 -0.82 1.56 0 1.53 0 1 0.35 c0.56 0.18 1.35 0.59 1.79 0.88 l0.82 0.56 0.79 1.35 0.76 1.32 0.03 1.68 0 1.65 -0.65 1.20 -0.62 1.23 -1.20 1 -1.18 1.03 -1.15 0.32 -1.12 0.35 -1.44 0 -1.44 0 -1.26 -0.62z"/>
    </g>
    <g fill="#fcfcfb">
        <path d="M206.02 137.63 l-1.03 -0.53 -0.38 -0.73 -0.38 -0.73 0.15 -1.12 0.12 -1.12 0.41 -0.47 c0.21 -0.26 0.91 -0.71 1.56 -1 l1.18 -0.50 2.67 -0.47 c1.50 -0.26 3.06 -0.59 3.50 -0.76 l0.82 -0.29 -0.15 2.29 -0.12 2.29 -0.59 0.94 -0.56 0.94 -1.09 0.79 -1.12 0.76 -1.97 0.12 -2 0.12 -1.03 -0.53z"/>
        <path d="M50.67 125.29 c0.06 -0.29 0.24 -0.85 0.32 -1.26 0.12 -0.41 0.53 -1.18 0.94 -1.70 l0.71 -0.94 1.09 -0.56 c0.59 -0.29 1.59 -0.62 2.17 -0.73 l1.12 -0.21 1.23 0.32 1.26 0.35 1 0.73 0.97 0.76 0.56 1.20 c0.29 0.65 0.56 1.50 0.56 1.88 l0 0.65 -6.05 0 -6.02 0 0.15 -0.50z"/>
        <path d="M255.28 124.99 c0.09 -0.47 0.50 -1.38 0.88 -2.06 l0.71 -1.20 0.94 -0.59 c0.53 -0.32 1.59 -0.76 2.35 -0.94 l1.35 -0.35 1.59 0.47 1.56 0.44 0.94 0.97 0.94 0.97 0.29 0.82 c0.18 0.47 0.32 1.15 0.32 1.56 l0 0.71 -6.02 0 -6.02 0 0.18 -0.79z"/>
        <path d="M384.12 75.74 l-1.62 -0.38 -1.32 -0.71 -1.29 -0.73 -0.88 -1.26 -0.88 -1.26 0 -2.12 0 -2.15 0.79 -1.68 0.82 -1.65 1.23 -1.06 1.20 -1.06 1.50 -0.68 c2 -0.97 4.50 -1.59 8.43 -2.09 1.82 -0.24 4.82 -0.71 6.64 -1.03 l3.35 -0.62 1.62 -0.56 1.59 -0.56 -0.15 0.79 c-0.09 0.44 -0.44 2.38 -0.76 4.29 l-0.62 3.50 -0.59 1.47 c-0.73 1.82 -1.91 3.53 -3.56 5.11 l-1.26 1.23 -1.76 1.06 -1.76 1.06 -1.91 0.59 -1.91 0.59 -2.65 0.12 -2.65 0.15 -1.62 -0.38z"/>
        <path d="M235.11 75.12 c-2.65 -0.76 -4.41 -2.03 -5.91 -4.17 l-0.88 -1.29 -0.56 -1.62 -0.56 -1.65 -0.32 -2.32 -0.32 -2.32 0.32 -3.12 0.32 -3.09 0.71 -2.85 0.73 -2.85 1.29 -2.65 1.29 -2.67 1.53 -2 1.56 -1.97 1.79 -1.38 1.79 -1.35 1.56 -0.71 1.56 -0.73 2.38 -0.47 2.38 -0.47 2.29 0.35 2.29 0.32 1.26 0.65 c0.68 0.35 1.62 0.91 2.09 1.26 l0.85 0.62 1.15 1.73 1.15 1.70 0.41 1.44 c0.26 0.82 0.59 2.50 0.76 3.76 l0.32 2.32 -0.29 3.12 -0.29 3.09 -0.62 2.35 c-0.32 1.29 -1.03 3.38 -1.59 4.67 l-0.97 2.35 -1.41 2.09 -1.41 2.12 -1.68 1.56 c-1.97 1.82 -3.79 2.94 -6.11 3.73 l-1.68 0.62 -2.94 0.12 -2.94 0.12 -1.32 -0.41z"/>
        <path d="M530.89 49.76 c0.12 -0.47 0.71 -1.88 1.35 -3.17 l1.15 -2.35 1.56 -1.85 1.56 -1.85 1.73 -1.29 c2.17 -1.59 4.32 -2.65 6.52 -3.23 l1.70 -0.44 2.09 0 2.06 0 1.47 0.41 c2.06 0.53 3.26 1.20 4.85 2.70 l1.38 1.29 0.79 1.76 0.79 1.76 0.21 2 c0.12 1.09 0.18 2.67 0.12 3.53 l-0.12 1.53 -14.69 0 -14.69 0 0.18 -0.79z"/>
        <path d="M675.81 28.71 c-0.47 -0.21 -1.29 -0.59 -1.79 -0.85 l-0.91 -0.50 -1.09 -1.23 -1.12 -1.23 -0.62 -1.35 -0.62 -1.35 0 -2.35 0 -2.35 0.71 -1.47 0.71 -1.47 1.41 -1.38 1.41 -1.35 1.62 -0.62 1.65 -0.62 1.73 0 1.73 0 1.62 0.59 1.59 0.62 1.32 1.18 1.35 1.18 0.82 1.68 0.82 1.68 0 2.35 0 2.35 -0.65 1.35 -0.62 1.35 -1.09 1.20 -1.09 1.20 -1.76 0.91 -1.79 0.88 -2.23 -0.03 -2.23 -0.03 -0.88 -0.32z m1.03 -5.64 l0 -1.91 1.47 0 1.47 0 0.94 1.91 0.94 1.91 0.97 0 0.97 0 0 -0.21 c0 -0.09 -0.44 -1 -1 -2 l-0.97 -1.79 0.82 -0.94 0.85 -0.94 0 -1.32 0 -1.32 -0.85 -0.94 -0.85 -0.97 -3.26 -0.09 -3.26 -0.12 0 5.32 0 5.32 0.88 0 0.88 0 0 -1.91z"/>
        <path d="M676.84 17.78 l0 -1.91 1.56 0 1.56 0 0.65 0.47 0.65 0.44 0 0.97 0 0.97 -0.53 0.47 -0.56 0.50 -1.65 0 -1.68 0 0 -1.91z"/>
    </g>
</svg>
